<svg width="30" height="24" viewBox="0 0 30 24" fill="none" xmlns="http://www.w3.org/2000/svg">
<g clip-path="url(#clip0_609_10218)">
<path d="M14.9997 1.5C14.6201 1.5 14.2451 1.56562 13.8888 1.69219L0.74037 6.44062C0.295057 6.60469 -0.00025505 7.02656 -0.00025505 7.5C-0.00025505 7.97344 0.295057 8.39531 0.74037 8.55938L3.45443 9.53906C2.68568 10.7484 2.24974 12.1781 2.24974 13.6828V15C2.24974 16.3313 1.74349 17.7047 1.20443 18.7875C0.899745 19.3969 0.55287 19.9969 0.149745 20.55C-0.000255048 20.7516 -0.0424425 21.0141 0.0419324 21.2531C0.126307 21.4922 0.323182 21.6703 0.566932 21.7313L3.56693 22.4813C3.76381 22.5328 3.97474 22.4953 4.14818 22.3875C4.32162 22.2797 4.44349 22.1016 4.48099 21.9C4.88412 19.8938 4.68256 18.0938 4.38256 16.8047C4.23256 16.1391 4.03099 15.4594 3.74974 14.8359V13.6828C3.74974 12.2672 4.22787 10.9312 5.05756 9.8625C5.66224 9.13594 6.44506 8.55 7.36381 8.18906L14.7232 5.29688C15.1076 5.14687 15.5435 5.33437 15.6935 5.71875C15.8435 6.10313 15.656 6.53906 15.2716 6.68906L7.91225 9.58125C7.331 9.81094 6.82006 10.1625 6.40287 10.5938L13.8841 13.2938C14.2404 13.4203 14.6154 13.4859 14.9951 13.4859C15.3747 13.4859 15.7497 13.4203 16.106 13.2938L29.2591 8.55938C29.7044 8.4 29.9997 7.97344 29.9997 7.5C29.9997 7.02656 29.7044 6.60469 29.2591 6.44062L16.1107 1.69219C15.7544 1.56562 15.3794 1.5 14.9997 1.5ZM5.99975 19.125C5.99975 20.7797 10.031 22.5 14.9997 22.5C19.9685 22.5 23.9997 20.7797 23.9997 19.125L23.2826 12.3094L16.6169 14.7188C16.0966 14.9062 15.5482 15 14.9997 15C14.4513 15 13.8982 14.9062 13.3826 14.7188L6.71693 12.3094L5.99975 19.125Z" fill="#EA580C"/>
</g>
<defs>
<clipPath id="clip0_609_10218">
<path d="M0 0H30V24H0V0Z" fill="white"/>
</clipPath>
</defs>
</svg>
