<svg xmlns="http://www.w3.org/2000/svg" viewBox="0 0 900 600" width="900" height="600" role="img" aria-label="Flag of India">
<title>Flag of India</title>
<rect width="900" height="200.0" y="0" fill="#FF9933"/>
<rect width="900" height="200.0" y="200.0" fill="#FFFFFF"/>
<rect width="900" height="200.0" y="400.0" fill="#138808"/>
<circle cx="450.0" cy="300.0" r="100" fill="none" stroke="#000080" stroke-width="9.00"/>
<circle cx="450.0" cy="300.0" r="11.50" fill="#000080"/>
<g stroke="#000080" stroke-width="3.50" stroke-linecap="round"><line x1="466.00" y1="300.00" x2="542.00" y2="300.00"/><line x1="465.45" y1="304.14" x2="538.87" y2="323.81"/><line x1="463.86" y1="308.00" x2="529.67" y2="346.00"/><line x1="461.31" y1="311.31" x2="515.05" y2="365.05"/><line x1="458.00" y1="313.86" x2="496.00" y2="379.67"/><line x1="454.14" y1="315.45" x2="473.81" y2="388.87"/><line x1="450.00" y1="316.00" x2="450.00" y2="392.00"/><line x1="445.86" y1="315.45" x2="426.19" y2="388.87"/><line x1="442.00" y1="313.86" x2="404.00" y2="379.67"/><line x1="438.69" y1="311.31" x2="384.95" y2="365.05"/><line x1="436.14" y1="308.00" x2="370.33" y2="346.00"/><line x1="434.55" y1="304.14" x2="361.13" y2="323.81"/><line x1="434.00" y1="300.00" x2="358.00" y2="300.00"/><line x1="434.55" y1="295.86" x2="361.13" y2="276.19"/><line x1="436.14" y1="292.00" x2="370.33" y2="254.00"/><line x1="438.69" y1="288.69" x2="384.95" y2="234.95"/><line x1="442.00" y1="286.14" x2="404.00" y2="220.33"/><line x1="445.86" y1="284.55" x2="426.19" y2="211.13"/><line x1="450.00" y1="284.00" x2="450.00" y2="208.00"/><line x1="454.14" y1="284.55" x2="473.81" y2="211.13"/><line x1="458.00" y1="286.14" x2="496.00" y2="220.33"/><line x1="461.31" y1="288.69" x2="515.05" y2="234.95"/><line x1="463.86" y1="292.00" x2="529.67" y2="254.00"/><line x1="465.45" y1="295.86" x2="538.87" y2="276.19"/></g>
</svg>