<svg xmlns="http://www.w3.org/2000/svg" viewBox="0 0 24 24" fill="none" aria-hidden="true">
  <path d="M12 11.2c0-1.6 1.1-2.9 2.6-2.9 1.3 0 2.3.9 2.5 2.1" stroke="#fff" stroke-width="1.35" stroke-linecap="round"/>
  <path d="M9.2 12.4c.2-2.4 2-4.2 4.4-4.2 2.1 0 3.8 1.5 4.2 3.5" stroke="#fff" stroke-width="1.35" stroke-linecap="round"/>
  <path d="M7.4 14.2c.4-3.5 3.2-6.1 6.8-6.1 3.3 0 6 2.3 6.7 5.4" stroke="#fff" stroke-width="1.35" stroke-linecap="round"/>
  <path d="M6 16.4c.7-4.5 4.4-7.8 8.9-7.8 4.2 0 7.7 3 8.6 7" stroke="#fff" stroke-width="1.35" stroke-linecap="round"/>
  <path d="M12 13.8v2.1c0 1.2-.8 2.2-1.9 2.5" stroke="#fff" stroke-width="1.35" stroke-linecap="round"/>
  <path d="M14.6 13.5v2.4c0 1-.6 1.9-1.5 2.2" stroke="#fff" stroke-width="1.35" stroke-linecap="round"/>
  <path d="M9.4 14.1v1.8c0 1.4 1 2.6 2.4 2.8" stroke="#fff" stroke-width="1.35" stroke-linecap="round"/>
  <path d="M16.8 12.1c.3 1.1.5 2.2.5 3.4 0 3.5-2.5 6.5-6 7.1" stroke="#fff" stroke-width="1.35" stroke-linecap="round"/>
  <path d="M5.8 17.2c1 3.7 4.4 6.4 8.4 6.4 4.8 0 8.7-3.7 9.1-8.4" stroke="#fff" stroke-width="1.35" stroke-linecap="round"/>
</svg>
